<?xml version="1.0" ?><svg viewBox="0 0 256 256" xmlns="http://www.w3.org/2000/svg"><rect fill="none" height="256" width="256"/><path d="M169.6,216a48.1,48.1,0,0,0-83.2,0H32S64,160,64,96a64,64,0,0,1,128,0c0,64,32,120,32,120Z" opacity="0.2"/><path d="M32,216S64,160,64,96a64,64,0,0,1,128,0c0,64,32,120,32,120" fill="none" stroke="#000" stroke-linecap="round" stroke-linejoin="round" stroke-width="16"/><circle cx="100" cy="108" r="12"/><circle cx="156" cy="108" r="12"/><polyline fill="none" points="160 144 128 160 96 144" stroke="#000" stroke-linecap="round" stroke-linejoin="round" stroke-width="16"/><path d="M86.4,216a48.1,48.1,0,0,1,83.2,0" fill="none" stroke="#000" stroke-linecap="round" stroke-linejoin="round" stroke-width="16"/></svg>