<svg xmlns="http://www.w3.org/2000/svg" xmlns:svgjs="http://svgjs.dev/svgjs" xmlns:xlink="http://www.w3.org/1999/xlink" width="128" height="128" version="1.1" viewBox="0 0 128 128"><g transform="matrix(0.8046875,0,0,0.8046875,12.760752631578946,12.760752631578946)"><svg xmlns="http://www.w3.org/2000/svg" xmlns:xlink="http://www.w3.org/1999/xlink" width="128" height="128" data-background-color="#ffffff" preserveAspectRatio="xMidYMid meet" viewBox="0 0 95 95"><g id="tight-bounds" transform="matrix(1,0,0,1,-0.24049999999999727,-0.24049999999999727)"><svg width="95.481" height="95.481" viewBox="0 0 95.481 95.481"><g><svg width="95.481" height="95.481" viewBox="0 0 95.481 95.481"><g><svg width="95.481" height="95.481" viewBox="0 0 95.481 95.481"><g id="textblocktransform"><svg id="textblock" width="95.481" height="95.481" viewBox="0 0 95.481 95.481"><g><svg width="95.481" height="95.481" viewBox="0 0 95.481 95.481"><g><svg width="95.481" height="95.481" viewBox="0 0 95.481 95.481"><g><svg xmlns="http://www.w3.org/2000/svg" xmlns:xlink="http://www.w3.org/1999/xlink" id="icon-0" width="95.481" height="95.481" x="0" y="0" version="1.1" viewBox="5 5 90 90" style="enable-background:new 0 0 100 100" class="icon-icon-0" data-fill-palette-color="accent" xml:space="preserve"><path fill="#2f2d2e" d="M53.75 5C42.731 5 32.373 9.291 24.582 17.082l-7.5 7.5C9.291 32.373 5 42.731 5 53.75s4.291 21.377 12.082 29.168S35.231 95 46.25 95s21.377-4.291 29.168-12.082l7.5-7.5C90.709 67.627 95 57.269 95 46.25s-4.291-21.377-12.082-29.168S64.769 5 53.75 5zM71.883 79.383c-14.135 14.133-37.131 14.133-51.266 0-14.134-14.134-14.134-37.132 0-51.266 7.067-7.066 16.35-10.601 25.633-10.601s18.565 3.534 25.633 10.601C86.017 42.251 86.017 65.249 71.883 79.383zM86.858 60.994c0.417-2.369 0.642-4.788 0.642-7.244 0-11.019-4.291-21.377-12.082-29.168S57.269 12.5 46.25 12.5c-2.455 0-4.875 0.225-7.243 0.642 4.68-2.078 9.71-3.126 14.743-3.126 9.283 0 18.565 3.534 25.633 10.601C90.281 31.516 92.767 47.682 86.858 60.994z" data-fill-palette-color="accent"/><path fill="#2f2d2e" d="M46.25 22.5c-6.484 0-12.512 1.986-17.51 5.38-0.086 0.051-0.166 0.113-0.246 0.175C20.349 33.701 15 43.11 15 53.75 15 70.981 29.019 85 46.25 85c10.641 0 20.052-5.35 25.698-13.497 0.061-0.079 0.121-0.157 0.172-0.241C75.514 66.263 77.5 60.234 77.5 53.75 77.5 36.519 63.481 22.5 46.25 22.5zM46.25 80C31.775 80 20 68.225 20 53.75c0-4.236 1.015-8.238 2.805-11.784-0.194 1.412-0.305 2.841-0.305 4.284 0 17.231 14.019 31.25 31.25 31.25 1.443 0 2.872-0.111 4.284-0.305C54.488 78.985 50.486 80 46.25 80zM68.171 68.166C63.882 70.995 58.911 72.5 53.75 72.5c-14.475 0-26.25-11.775-26.25-26.25 0-5.161 1.505-10.132 4.334-14.421 4.141-2.732 9.095-4.329 14.416-4.329 14.475 0 26.25 11.775 26.25 26.25C72.5 59.072 70.904 64.026 68.171 68.166z" data-fill-palette-color="accent"/></svg></g></svg></g></svg></g></svg></g></svg></g></svg></g></svg><rect width="95.481" height="95.481" fill="none" stroke="none" visibility="hidden"/></g></svg></g></svg>