<svg xmlns="http://www.w3.org/2000/svg" version="1.1" xmlns:xlink="http://www.w3.org/1999/xlink" xmlns:svgjs="http://svgjs.dev/svgjs" width="2000" height="499" viewBox="0 0 2000 499"><g transform="matrix(1,0,0,1,-1.2121212121212466,-0.1989609915021333)"><svg viewBox="0 0 396 99" data-background-color="#ffffff" preserveAspectRatio="xMidYMid meet" height="499" width="2000" xmlns="http://www.w3.org/2000/svg" xmlns:xlink="http://www.w3.org/1999/xlink"><g id="tight-bounds" transform="matrix(1,0,0,1,0.2400000000000091,0.0394732227629504)"><svg viewBox="0 0 395.52 98.92105106568563" height="98.92105106568563" width="395.52"><g><svg viewBox="0 0 575.6121219850093 143.96277334371655" height="98.92105106568563" width="395.52"><g transform="matrix(1,0,0,1,180.09212198500927,41.37315149226127)"><svg viewBox="0 0 395.52 61.216470359194005" height="61.216470359194005" width="395.52"><g id="textblocktransform"><svg viewBox="0 0 395.52 61.216470359194005" height="61.216470359194005" width="395.52" id="textblock"><g><svg viewBox="0 0 395.52 61.216470359194005" height="61.216470359194005" width="395.52"><g transform="matrix(1,0,0,1,0,0)"><svg width="395.52" viewBox="2.76 -38.11 250.78 38.82" height="61.216470359194005" data-palette-color="#4f4d4d"><g class="wordmark-text-0" data-fill-palette-color="primary" id="text-0"><path d="M25.95-1L30.2-2.76 30.2-16.99 12.01-16.99 12.01-2.76 16.5-1 16.5 0 3 0 3-1 7.25-2.76 7.25-33.25 2.76-35.01 2.76-36.01 16.26-36.01 16.26-35.01 12.01-33.25 12.01-19.6 30.2-19.6 30.2-33.25 25.71-35.01 25.71-36.01 38.7-36.01 38.7-35.11 34.96-33.25 34.96-2.76 39.45-1 39.45 0 25.95 0 25.95-1ZM63.45-3.39L67.97-2.15 67.97-1.25 62.67 0.39Q61.11 0.73 60.03 0.04 58.96-0.66 58.96-2.34L58.96-2.34Q55.78 0.61 51.51 0.61L51.51 0.61Q47.97 0.61 46.21-1.22 44.46-3.05 44.46-5.81L44.46-5.81Q44.46-7.89 45.38-9.48 46.31-11.08 47.75-12.04 49.19-12.99 51.19-13.62 53.2-14.26 55.05-14.5 56.91-14.75 58.96-14.79L58.96-14.79 58.96-17.14Q58.96-20.56 57.88-21.9 56.81-23.24 54.32-23.24L54.32-23.24Q52.44-23.24 49.9-22.66L49.9-22.66 47.31-16.99 46.12-16.99 46.12-23.95Q48.31-24.73 50.75-25.17 53.2-25.61 55.05-25.61L55.05-25.61Q59.08-25.61 61.26-23.99 63.45-22.36 63.45-18.65L63.45-18.65 63.45-3.39ZM53.56-2.25L53.56-2.25Q54.95-2.25 56.42-2.92 57.88-3.59 58.96-4.76L58.96-4.76 58.96-12.79Q54.07-12.57 51.51-10.8 48.95-9.03 48.95-6.3L48.95-6.3Q48.95-4.2 50.29-3.22 51.63-2.25 53.56-2.25ZM71.7-8.25L72.94-8.25 75.56-2.71Q75.87-2.51 76.34-2.36 76.8-2.2 77.34-2.08 77.88-1.95 78.44-1.88 79-1.81 79.54-1.81L79.54-1.81Q80.78-1.81 81.79-2.06 82.81-2.32 83.54-2.8 84.27-3.27 84.66-3.97 85.05-4.66 85.05-5.54L85.05-5.54Q85.05-6.69 84.11-7.73 83.17-8.76 81.46-9.74L81.46-9.74 78.85-11.21Q77.46-11.94 76.25-12.72 75.04-13.5 74.14-14.43 73.24-15.36 72.71-16.48 72.19-17.6 72.19-18.99L72.19-18.99Q72.19-20.68 72.85-21.92 73.51-23.17 74.73-23.99 75.95-24.8 77.67-25.21 79.39-25.61 81.49-25.61L81.49-25.61Q84.71-25.61 87.93-24.56L87.93-24.56 87.84-17.5 86.84-17.5 84.25-23.24Q83.32-23.36 82.65-23.44 81.98-23.51 81.54-23.51L81.54-23.51Q80.22-23.51 79.26-23.21 78.29-22.9 77.67-22.4 77.05-21.9 76.74-21.26 76.44-20.63 76.44-19.95L76.44-19.95Q76.44-19.14 76.74-18.49 77.05-17.85 77.64-17.26 78.24-16.67 79.15-16.1 80.05-15.53 81.25-14.89L81.25-14.89Q82.95-13.96 84.06-13.38 85.18-12.79 85.66-12.45L85.66-12.45Q89.5-9.89 89.5-6.54L89.5-6.54Q89.5-4.74 88.63-3.38 87.76-2.03 86.36-1.11 84.96-0.2 83.2 0.26 81.44 0.71 79.66 0.71L79.66 0.71Q78.73 0.71 77.66 0.59 76.58 0.46 75.51 0.24 74.43 0.02 73.44-0.28 72.46-0.59 71.7-0.95L71.7-0.95 71.7-8.25ZM102.48-2.76L106.73-1 106.73 0 93.47 0 93.47-1 97.99-2.76 97.99-33.59 93.47-35.35 93.47-36.35 101.99-38.11 102.48-37.6 102.48-22.14Q104.19-23.75 106.51-24.68 108.83-25.61 111.08-25.61L111.08-25.61Q114.37-25.61 116.53-23.61 118.69-21.61 118.69-17.65L118.69-17.65 118.69-2.76 123.19-1 123.19 0 109.93 0 109.93-1 114.18-2.76 114.18-16.16Q114.18-19.68 112.93-21.04 111.69-22.41 108.64-22.41L108.64-22.41Q105-22.41 102.48-20.24L102.48-20.24 102.48-2.76ZM137.73 0.61L137.73 0.61Q135.44 0.61 133.35-0.33 131.26-1.27 129.68-2.94 128.09-4.61 127.14-7.1 126.19-9.59 126.19-12.5L126.19-12.5Q126.19-15.65 127.14-18.19 128.09-20.73 129.76-22.34 131.44-23.95 133.61-24.8 135.78-25.66 138.3-25.66L138.3-25.66Q141.88-25.66 145.35-24.05L145.35-24.05 145.35-16.5 144.35-16.5 141.64-23.05Q140.18-23.39 138.74-23.39L138.74-23.39Q134.9-23.39 133.07-20.56 131.24-17.72 131.24-12.5L131.24-12.5Q131.24-7.52 133.66-4.86 136.07-2.2 140.3-2.2L140.3-2.2Q141.74-2.2 142.9-2.58 144.06-2.95 145.74-3.91L145.74-3.91 146.5-2.34Q144.33-0.63 142.3-0.01 140.27 0.61 137.73 0.61ZM162.71-25.61L162.71-25.61Q165.49-25.61 167.71-24.66 169.93-23.71 171.47-21.98 173.01-20.26 173.83-17.85 174.65-15.43 174.65-12.5L174.65-12.5Q174.65-9.59 173.84-7.18 173.03-4.76 171.5-3.03 169.96-1.29 167.74-0.34 165.51 0.61 162.71 0.61L162.71 0.61Q159.88 0.61 157.65-0.34 155.43-1.29 153.89-3.03 152.36-4.76 151.55-7.17 150.74-9.57 150.74-12.5L150.74-12.5Q150.74-15.43 151.56-17.85 152.38-20.26 153.92-21.98 155.46-23.71 157.68-24.66 159.9-25.61 162.71-25.61ZM157.38-20.43L157.38-20.43Q155.51-17.38 155.51-12.5L155.51-12.5Q155.51-10.08 155.98-8.07 156.46-6.05 157.37-4.6 158.29-3.15 159.63-2.34 160.97-1.54 162.71-1.54L162.71-1.54Q164.44-1.54 165.81-2.34 167.18-3.15 168.11-4.6 169.05-6.05 169.56-8.07 170.06-10.08 170.06-12.5L170.06-12.5Q170.06-14.89 169.56-16.91 169.05-18.92 168.11-20.37 167.18-21.83 165.81-22.64 164.44-23.46 162.71-23.46L162.71-23.46Q159.24-23.46 157.38-20.43ZM200.94-3.39L205.43-2.15 205.43-1.25 196.93 0.61 196.44 0.1 196.44-2.25Q193.52 0.61 189.54 0.61L189.54 0.61Q187.51 0.61 185.63-0.31 183.75-1.22 182.31-2.87 180.87-4.52 180-7.02 179.14-9.52 179.14-12.5L179.14-12.5Q179.14-15.41 180.12-17.87 181.11-20.34 182.8-22.01 184.48-23.68 186.78-24.62 189.07-25.56 191.64-25.56L191.64-25.56Q193.95-25.56 196.44-24.76L196.44-24.76 196.44-33.59 191.93-35.35 191.93-36.35 200.45-38.11 200.94-37.6 200.94-3.39ZM196.44-4.91L196.44-4.91 196.44-21.85Q194.17-23.1 192.15-23.1L192.15-23.1Q188.71-23.1 186.47-20.06 184.24-17.02 184.24-12.5L184.24-12.5Q184.24-7.76 186.08-4.88 187.92-2 191.24-2L191.24-2Q194.3-2 196.44-4.91ZM230.74-13.06L230.04-12.35 214.24-12.35Q214.26-9.62 215.02-7.59 215.78-5.57 217.07-4.42 218.37-3.27 219.92-2.73 221.47-2.2 223.3-2.2L223.3-2.2Q225.84-2.2 228.74-3.91L228.74-3.91 229.5-2.44Q227.45-0.63 225.4-0.01 223.35 0.61 220.73 0.61L220.73 0.61Q218.46 0.61 216.36-0.35 214.26-1.32 212.68-3.02 211.09-4.71 210.14-7.18 209.19-9.64 209.19-12.5L209.19-12.5Q209.19-15.21 209.88-17.44 210.58-19.68 211.73-21.17 212.87-22.66 214.4-23.68 215.92-24.71 217.52-25.16 219.12-25.61 220.78-25.61L220.78-25.61Q222.86-25.61 224.63-24.84 226.4-24.07 227.78-22.57 229.16-21.07 229.95-18.63 230.74-16.19 230.74-13.06L230.74-13.06ZM220.88-23.24L220.88-23.24Q218.07-23.24 216.4-21.02 214.73-18.8 214.34-14.94L214.34-14.94 225.98-14.94Q225.98-18.85 224.67-21.04 223.35-23.24 220.88-23.24ZM235.75-8.25L236.99-8.25 239.6-2.71Q239.92-2.51 240.39-2.36 240.85-2.2 241.39-2.08 241.92-1.95 242.48-1.88 243.05-1.81 243.58-1.81L243.58-1.81Q244.83-1.81 245.84-2.06 246.86-2.32 247.59-2.8 248.32-3.27 248.71-3.97 249.1-4.66 249.1-5.54L249.1-5.54Q249.1-6.69 248.16-7.73 247.22-8.76 245.51-9.74L245.51-9.74 242.9-11.21Q241.51-11.94 240.3-12.72 239.09-13.5 238.19-14.43 237.28-15.36 236.76-16.48 236.23-17.6 236.23-18.99L236.23-18.99Q236.23-20.68 236.89-21.92 237.55-23.17 238.77-23.99 239.99-24.8 241.72-25.21 243.44-25.61 245.54-25.61L245.54-25.61Q248.76-25.61 251.98-24.56L251.98-24.56 251.88-17.5 250.88-17.5 248.3-23.24Q247.37-23.36 246.7-23.44 246.02-23.51 245.59-23.51L245.59-23.51Q244.27-23.51 243.3-23.21 242.34-22.9 241.72-22.4 241.09-21.9 240.79-21.26 240.48-20.63 240.48-19.95L240.48-19.95Q240.48-19.14 240.79-18.49 241.09-17.85 241.69-17.26 242.29-16.67 243.19-16.1 244.1-15.53 245.29-14.89L245.29-14.89Q247-13.96 248.11-13.38 249.22-12.79 249.71-12.45L249.71-12.45Q253.54-9.89 253.54-6.54L253.54-6.54Q253.54-4.74 252.68-3.38 251.81-2.03 250.41-1.11 249-0.2 247.25 0.26 245.49 0.71 243.71 0.71L243.71 0.71Q242.78 0.71 241.7 0.59 240.63 0.46 239.56 0.24 238.48 0.02 237.49-0.28 236.5-0.59 235.75-0.95L235.75-0.95 235.75-8.25Z" fill="#4f4d4d" data-fill-palette-color="primary"></path></g></svg></g></svg></g></svg></g></svg></g><g><svg viewBox="0 0 143.96277334371655 143.96277334371655" height="143.96277334371655" width="143.96277334371655"><g><svg viewBox="0 0 143.96277334371655 143.96277334371655" height="143.96277334371655" width="143.96277334371655"><g transform="matrix(1,0,0,1,38.04903558193697,38.04903558193697)"><svg viewBox="0 0 67.86470217984261 67.86470217984261" height="67.86470217984261" width="67.86470217984261"><g><svg xmlns="http://www.w3.org/2000/svg" xmlns:xlink="http://www.w3.org/1999/xlink" version="1.1" x="0" y="0" viewBox="5 5 90 90" style="enable-background:new 0 0 100 100;" xml:space="preserve" height="67.86470217984261" width="67.86470217984261" class="icon-cg-0" data-fill-palette-color="accent" id="cg-0"><path d="M53.75 5C42.731 5 32.373 9.291 24.582 17.082l-7.5 7.5C9.291 32.373 5 42.731 5 53.75s4.291 21.377 12.082 29.168S35.231 95 46.25 95s21.377-4.291 29.168-12.082l7.5-7.5C90.709 67.627 95 57.269 95 46.25s-4.291-21.377-12.082-29.168S64.769 5 53.75 5zM71.883 79.383c-14.135 14.133-37.131 14.133-51.266 0-14.134-14.134-14.134-37.132 0-51.266 7.067-7.066 16.35-10.601 25.633-10.601s18.565 3.534 25.633 10.601C86.017 42.251 86.017 65.249 71.883 79.383zM86.858 60.994c0.417-2.369 0.642-4.788 0.642-7.244 0-11.019-4.291-21.377-12.082-29.168S57.269 12.5 46.25 12.5c-2.455 0-4.875 0.225-7.243 0.642 4.68-2.078 9.71-3.126 14.743-3.126 9.283 0 18.565 3.534 25.633 10.601C90.281 31.516 92.767 47.682 86.858 60.994z" fill="#2f2d2e" data-fill-palette-color="accent"></path><path d="M46.25 22.5c-6.484 0-12.512 1.986-17.51 5.38-0.086 0.051-0.166 0.113-0.246 0.175C20.349 33.701 15 43.11 15 53.75 15 70.981 29.019 85 46.25 85c10.641 0 20.052-5.35 25.698-13.497 0.061-0.079 0.121-0.157 0.172-0.241C75.514 66.263 77.5 60.234 77.5 53.75 77.5 36.519 63.481 22.5 46.25 22.5zM46.25 80C31.775 80 20 68.225 20 53.75c0-4.236 1.015-8.238 2.805-11.784-0.194 1.412-0.305 2.841-0.305 4.284 0 17.231 14.019 31.25 31.25 31.25 1.443 0 2.872-0.111 4.284-0.305C54.488 78.985 50.486 80 46.25 80zM68.171 68.166C63.882 70.995 58.911 72.5 53.75 72.5c-14.475 0-26.25-11.775-26.25-26.25 0-5.161 1.505-10.132 4.334-14.421 4.141-2.732 9.095-4.329 14.416-4.329 14.475 0 26.25 11.775 26.25 26.25C72.5 59.072 70.904 64.026 68.171 68.166z" fill="#2f2d2e" data-fill-palette-color="accent"></path></svg></g></svg></g><g id="text-0"><path d="M13.456 48.178l-0.065-1.489-4.336-1.571-2.009 5.547 4.337 1.57 1.03-1.179 0.305 0.111-1.491 4.117-0.305-0.11-0.064-1.49-9.292-3.365-1.041 1.176-0.305-0.11 1.491-4.118 0.305 0.111 0.074 1.493 4.156 1.504 2.008-5.547-4.155-1.504-1.041 1.176-0.305-0.111 1.436-3.965 0.276 0.1 0.158 1.351 9.293 3.365 1.03-1.179 0.305 0.11-1.49 4.117z" fill="#2f2d2e" data-fill-palette-color="accent"></path><path d="M24.641 28.704l1.25-0.872 0.227 0.187-0.695 1.663c-0.159 0.307-0.368 0.502-0.63 0.584-0.261 0.082-0.532 0.006-0.812-0.227v0c0.054 0.94-0.215 1.767-0.806 2.48v0c-0.488 0.588-1.006 0.9-1.554 0.936-0.548 0.037-1.052-0.135-1.51-0.515v0c-0.343-0.285-0.583-0.615-0.718-0.991-0.14-0.371-0.191-0.743-0.154-1.116 0.042-0.369 0.147-0.765 0.314-1.188 0.172-0.419 0.367-0.802 0.584-1.148 0.213-0.341 0.459-0.686 0.739-1.034v0l-0.585-0.485c-0.567-0.47-1.038-0.707-1.412-0.711-0.37-0.009-0.728 0.195-1.074 0.611v0c-0.259 0.312-0.516 0.717-0.772 1.216v0l0.883 1.826-0.246 0.296-1.74-1.443c0.172-0.472 0.39-0.941 0.654-1.407 0.264-0.466 0.525-0.855 0.784-1.167v0c0.557-0.671 1.119-1.074 1.687-1.208 0.572-0.14 1.166 0.045 1.779 0.554v0zM22.884 31.408v0c0.194-0.234 0.336-0.516 0.425-0.845 0.088-0.339 0.112-0.68 0.071-1.022v0l-2.005-1.664c-0.641 0.847-0.993 1.604-1.055 2.273-0.053 0.667 0.149 1.191 0.606 1.57v0c0.348 0.289 0.694 0.391 1.037 0.307 0.347-0.09 0.654-0.296 0.921-0.619z" fill="#2f2d2e" data-fill-palette-color="accent"></path><path d="M33.822 18.486l0.336-0.225 1.698 1.022c0.088-0.002 0.181-0.015 0.278-0.04 0.103-0.028 0.21-0.063 0.32-0.105 0.116-0.045 0.228-0.096 0.337-0.153 0.109-0.056 0.211-0.117 0.306-0.18v0c0.225-0.15 0.412-0.308 0.562-0.474 0.15-0.165 0.263-0.335 0.341-0.509 0.069-0.176 0.099-0.351 0.089-0.524-0.015-0.169-0.076-0.332-0.181-0.488v0c-0.139-0.208-0.355-0.348-0.647-0.421-0.293-0.072-0.653-0.095-1.083-0.067v0l-0.958 0.081c-0.343 0.035-0.668 0.053-0.976 0.055-0.313 0.006-0.605-0.017-0.877-0.071-0.276-0.059-0.529-0.158-0.76-0.296-0.225-0.142-0.421-0.336-0.586-0.583v0c-0.203-0.303-0.321-0.607-0.353-0.91-0.033-0.304 0.012-0.602 0.132-0.895 0.121-0.293 0.312-0.579 0.572-0.859 0.26-0.28 0.578-0.546 0.954-0.797v0c0.578-0.387 1.22-0.679 1.926-0.876v0l1.245 1.911-0.27 0.181-1.731-1.073c-0.178 0.087-0.334 0.163-0.469 0.229-0.125 0.068-0.227 0.128-0.306 0.181v0c-0.236 0.158-0.422 0.323-0.559 0.496-0.136 0.173-0.231 0.342-0.282 0.506-0.052 0.165-0.069 0.323-0.05 0.473 0.025 0.146 0.078 0.281 0.161 0.404v0c0.098 0.146 0.211 0.261 0.341 0.345 0.131 0.075 0.286 0.13 0.465 0.165 0.178 0.035 0.382 0.049 0.613 0.041 0.231-0.008 0.492-0.025 0.784-0.05v0c0.418-0.044 0.764-0.08 1.037-0.109 0.268-0.025 0.468-0.037 0.599-0.035v0c0.993 0.001 1.691 0.303 2.093 0.903v0c0.218 0.326 0.332 0.66 0.343 1.003 0.005 0.347-0.065 0.686-0.209 1.018-0.14 0.338-0.341 0.651-0.602 0.94-0.258 0.295-0.547 0.549-0.867 0.764v0c-0.168 0.113-0.356 0.222-0.561 0.328-0.212 0.109-0.426 0.208-0.643 0.296-0.223 0.092-0.44 0.169-0.652 0.23-0.217 0.064-0.414 0.111-0.59 0.139v0z" fill="#2f2d2e" data-fill-palette-color="accent"></path><path d="M53.259 10.987l1.481 0.171 0.088 0.312-4.135 1.17-0.089-0.312 1.25-0.944-2.721-9.617-1.561-0.158-0.089-0.312 2.499-1.297 0.203 0.122 1.363 4.818c0.255-0.437 0.6-0.819 1.034-1.146 0.426-0.331 0.873-0.563 1.342-0.696v0c0.683-0.193 1.307-0.145 1.873 0.144 0.566 0.289 0.966 0.843 1.198 1.663v0l1.316 4.653 1.559 0.148 0.088 0.312-4.135 1.171-0.088-0.313 1.172-0.921-1.184-4.184c-0.206-0.728-0.48-1.199-0.821-1.411-0.341-0.213-0.827-0.23-1.458-0.052v0c-0.761 0.215-1.337 0.624-1.728 1.227v0z" fill="#2f2d2e" data-fill-palette-color="accent"></path><path d="M75.003 9.26v0c-0.493-0.014-0.963-0.133-1.409-0.356-0.447-0.216-0.837-0.508-1.171-0.876-0.327-0.375-0.587-0.832-0.782-1.372-0.187-0.546-0.271-1.134-0.252-1.761v0c0.02-0.682 0.139-1.294 0.358-1.835 0.225-0.541 0.522-0.978 0.89-1.313 0.375-0.341 0.798-0.595 1.27-0.764 0.478-0.175 0.988-0.255 1.528-0.239v0c0.777 0.023 1.535 0.221 2.274 0.594v0l-0.071 2.442-0.324-0.01-0.82-2.143c-0.315-0.084-0.628-0.13-0.939-0.139v0c-0.824-0.024-1.444 0.265-1.861 0.868-0.416 0.596-0.641 1.458-0.674 2.586v0c-0.032 1.081 0.208 1.916 0.718 2.506 0.503 0.589 1.211 0.897 2.122 0.924v0c0.311 0.009 0.592-0.023 0.845-0.097 0.252-0.074 0.564-0.21 0.935-0.409v0l0.228 0.514c-0.477 0.358-0.937 0.598-1.38 0.72-0.443 0.122-0.938 0.175-1.485 0.16z" fill="#2f2d2e" data-fill-palette-color="accent"></path><path d="M95.771 4.808v0c0.569 0.195 1.051 0.467 1.446 0.816 0.386 0.354 0.675 0.76 0.868 1.219 0.193 0.459 0.288 0.963 0.285 1.513-0.005 0.556-0.109 1.131-0.312 1.725v0c-0.204 0.595-0.473 1.109-0.808 1.544-0.331 0.444-0.713 0.788-1.147 1.033-0.442 0.248-0.923 0.391-1.443 0.427-0.522 0.043-1.07-0.035-1.645-0.232v0c-0.575-0.197-1.056-0.473-1.442-0.826-0.388-0.347-0.678-0.754-0.869-1.219-0.199-0.461-0.294-0.965-0.285-1.512 0.002-0.549 0.107-1.124 0.313-1.726v0c0.204-0.595 0.474-1.113 0.811-1.554 0.335-0.435 0.719-0.775 1.153-1.019 0.44-0.242 0.921-0.384 1.442-0.427 0.52-0.036 1.064 0.043 1.633 0.238zM93.599 5.831v0c-0.598 0.495-1.068 1.241-1.41 2.239v0c-0.171 0.499-0.278 0.969-0.323 1.411-0.038 0.444-0.016 0.848 0.067 1.212 0.085 0.358 0.236 0.667 0.454 0.927 0.218 0.26 0.503 0.451 0.854 0.571v0c0.358 0.123 0.706 0.149 1.045 0.08 0.332-0.072 0.644-0.222 0.936-0.451 0.295-0.235 0.563-0.539 0.806-0.913 0.242-0.374 0.449-0.81 0.62-1.309v0c0.166-0.486 0.27-0.954 0.31-1.405 0.038-0.444 0.012-0.849-0.077-1.215-0.091-0.36-0.245-0.67-0.463-0.931-0.224-0.263-0.515-0.455-0.874-0.578v0c-0.703-0.241-1.352-0.12-1.945 0.362z" fill="#2f2d2e" data-fill-palette-color="accent"></path><path d="M113.382 22.997l0.921 1.203-0.177 0.234-2.567-1.175-0.026-0.235 0.458-0.607c-0.876 0.118-1.659-0.084-2.35-0.604v0c-0.345-0.26-0.619-0.594-0.82-1-0.211-0.405-0.333-0.844-0.365-1.317-0.037-0.468 0.035-0.972 0.215-1.514 0.179-0.551 0.461-1.083 0.848-1.595v0c0.378-0.502 0.812-0.903 1.301-1.202 0.49-0.291 0.991-0.472 1.501-0.543 0.507-0.066 1.018-0.032 1.535 0.103 0.525 0.134 1.009 0.368 1.451 0.702v0c0.399 0.301 0.759 0.683 1.08 1.144v0l1.721-2.282-0.817-1.34 0.195-0.259 2.543 1.207 0.026 0.236zM112.51 21.73v0l3.309-4.386c-0.226-0.509-0.514-0.895-0.865-1.16v0c-0.593-0.448-1.284-0.554-2.071-0.318-0.778 0.234-1.46 0.74-2.045 1.516v0c-0.619 0.82-0.956 1.598-1.012 2.335-0.056 0.736 0.202 1.32 0.773 1.752v0c0.529 0.399 1.166 0.486 1.911 0.261z" fill="#2f2d2e" data-fill-palette-color="accent"></path><path d="M129.243 36.529l-0.319-0.047-2.968-4.183c-0.476 0.346-0.846 0.712-1.11 1.098-0.26 0.392-0.412 0.773-0.456 1.144-0.038 0.367-0.009 0.723 0.088 1.069 0.102 0.342 0.266 0.673 0.493 0.993v0c0.317 0.446 0.809 0.818 1.475 1.116v0l-0.248 0.474c-0.574-0.131-1.045-0.34-1.413-0.626-0.364-0.28-0.711-0.651-1.039-1.114v0c-0.282-0.397-0.47-0.843-0.565-1.339-0.091-0.49-0.088-0.982 0.01-1.474 0.108-0.491 0.318-0.976 0.633-1.456 0.313-0.47 0.722-0.885 1.229-1.245v0c0.474-0.336 0.952-0.585 1.435-0.745 0.477-0.156 0.921-0.226 1.33-0.21 0.409 0.016 0.798 0.097 1.166 0.241 0.37 0.135 0.695 0.314 0.978 0.537 0.281 0.232 0.524 0.494 0.731 0.786v0c0.258 0.364 0.43 0.752 0.515 1.164 0.087 0.402 0.084 0.819-0.009 1.249-0.089 0.436-0.299 0.875-0.631 1.317-0.332 0.443-0.774 0.86-1.325 1.251zM130.082 32.019v0c-0.352-0.496-0.827-0.751-1.425-0.766-0.602-0.02-1.266 0.177-1.991 0.592v0l2.182 3.076c0.689-0.489 1.144-0.986 1.366-1.491 0.222-0.505 0.178-0.975-0.132-1.411z" fill="#2f2d2e" data-fill-palette-color="accent"></path><path d="M133.549 49.009l0.131 0.384-1.428 1.375c-0.021 0.086-0.032 0.179-0.033 0.279 0.001 0.107 0.007 0.219 0.018 0.336 0.014 0.124 0.034 0.246 0.06 0.365 0.026 0.119 0.058 0.234 0.096 0.343v0c0.087 0.256 0.191 0.477 0.312 0.664 0.121 0.187 0.255 0.341 0.403 0.462 0.152 0.112 0.313 0.186 0.483 0.222 0.167 0.029 0.34 0.013 0.519-0.049v0c0.237-0.081 0.428-0.253 0.573-0.516 0.146-0.264 0.261-0.606 0.346-1.028v0l0.17-0.947c0.055-0.34 0.122-0.659 0.199-0.956 0.075-0.304 0.174-0.58 0.296-0.829 0.129-0.251 0.29-0.47 0.483-0.658 0.195-0.181 0.434-0.319 0.715-0.414v0c0.345-0.118 0.669-0.153 0.971-0.106 0.302 0.047 0.578 0.167 0.829 0.36 0.251 0.193 0.478 0.451 0.682 0.774 0.203 0.323 0.377 0.7 0.523 1.128v0c0.224 0.659 0.34 1.355 0.347 2.088v0l-2.169 0.707-0.104-0.307 1.484-1.395c-0.038-0.194-0.071-0.365-0.099-0.512-0.033-0.139-0.065-0.253-0.095-0.342v0c-0.092-0.269-0.203-0.491-0.335-0.668-0.132-0.177-0.27-0.311-0.416-0.405-0.146-0.093-0.294-0.15-0.443-0.17-0.148-0.014-0.292 0.003-0.433 0.051v0c-0.166 0.057-0.307 0.137-0.421 0.24-0.106 0.108-0.199 0.243-0.28 0.406-0.08 0.163-0.146 0.357-0.198 0.581-0.052 0.225-0.104 0.481-0.155 0.771v0c-0.066 0.415-0.12 0.758-0.163 1.03-0.045 0.265-0.086 0.461-0.122 0.587v0c-0.259 0.959-0.73 1.555-1.414 1.788v0c-0.371 0.126-0.723 0.15-1.058 0.071-0.336-0.085-0.646-0.24-0.929-0.465-0.29-0.222-0.541-0.498-0.752-0.825-0.218-0.326-0.389-0.671-0.514-1.035v0c-0.065-0.192-0.122-0.401-0.17-0.628-0.051-0.233-0.091-0.465-0.12-0.698-0.031-0.239-0.049-0.469-0.053-0.688-0.006-0.226 0-0.428 0.019-0.606v0z" fill="#2f2d2e" data-fill-palette-color="accent"></path><path d="M6.461 99.39l1.062 1.154 4.585-1.688-2.153-5.85-4.585 1.687-0.029 1.653-0.323 0.119-1.6-4.347 0.323-0.119 1.062 1.153 9.827-3.616 0.029-1.652 0.323-0.119 1.6 4.347-0.323 0.119-1.062-1.154-4.395 1.617 2.153 5.851 4.395-1.618 0.029-1.652 0.323-0.119 1.541 4.186-0.295 0.108-1.035-0.991-9.826 3.616-0.026 1.662-0.323 0.119-1.6-4.347z" fill="#2f2d2e" data-fill-palette-color="accent"></path><path d="M20.39 120.111l0.672 1.462-0.241 0.202-1.594-1.031c-0.292-0.222-0.457-0.481-0.494-0.776-0.038-0.286 0.091-0.553 0.386-0.801v0c-0.983-0.119-1.789-0.553-2.419-1.304v0c-0.522-0.621-0.75-1.219-0.686-1.793 0.06-0.58 0.333-1.074 0.819-1.483v0c0.362-0.304 0.75-0.494 1.165-0.568 0.418-0.069 0.817-0.047 1.195 0.068 0.379 0.105 0.771 0.288 1.176 0.548 0.409 0.256 0.772 0.53 1.087 0.821 0.315 0.291 0.628 0.611 0.938 0.959v0l0.613-0.515c0.6-0.504 0.938-0.947 1.015-1.33 0.077-0.391-0.067-0.804-0.432-1.239v0c-0.278-0.331-0.656-0.676-1.133-1.033v0l-2.058 0.577-0.267-0.319 1.831-1.538c0.461 0.275 0.908 0.592 1.342 0.951 0.438 0.364 0.795 0.709 1.069 1.035v0c0.591 0.704 0.905 1.366 0.942 1.988 0.037 0.622-0.27 1.207-0.922 1.755v0zM17.903 117.766v0c0.204 0.243 0.475 0.444 0.811 0.603 0.331 0.163 0.678 0.251 1.042 0.263v0l2.111-1.774c-0.754-0.823-1.475-1.329-2.164-1.518-0.689-0.189-1.274-0.082-1.754 0.322v0c-0.367 0.309-0.536 0.654-0.507 1.035 0.025 0.376 0.179 0.733 0.461 1.069z" fill="#2f2d2e" data-fill-palette-color="accent"></path><path d="M32.371 128.442l0.355 0.236-0.306 2.072c0.036 0.081 0.089 0.165 0.16 0.253 0.062 0.09 0.139 0.182 0.231 0.275 0.086 0.09 0.179 0.176 0.279 0.259 0.096 0.088 0.194 0.166 0.295 0.233v0c0.236 0.157 0.467 0.274 0.693 0.35 0.231 0.08 0.443 0.12 0.638 0.12 0.201 0.003 0.38-0.035 0.54-0.116 0.169-0.083 0.309-0.208 0.421-0.378v0c0.142-0.214 0.19-0.482 0.145-0.804-0.049-0.317-0.175-0.676-0.379-1.079v0l-0.468-0.907c-0.171-0.316-0.321-0.627-0.451-0.933-0.134-0.3-0.23-0.595-0.288-0.885-0.049-0.292-0.053-0.579-0.013-0.86 0.041-0.281 0.149-0.554 0.325-0.819v0c0.213-0.321 0.46-0.558 0.741-0.712 0.287-0.15 0.598-0.228 0.933-0.232 0.335-0.004 0.694 0.067 1.075 0.215 0.379 0.138 0.768 0.34 1.167 0.605v0c0.613 0.408 1.16 0.917 1.639 1.527v0l-1.361 1.993-0.287-0.191 0.346-2.132c-0.16-0.138-0.3-0.256-0.423-0.353-0.113-0.099-0.211-0.177-0.295-0.233v0c-0.253-0.168-0.491-0.286-0.715-0.353-0.221-0.058-0.423-0.078-0.604-0.061-0.182 0.017-0.343 0.064-0.484 0.141-0.139 0.086-0.251 0.194-0.336 0.324v0c-0.101 0.152-0.164 0.309-0.191 0.47-0.02 0.165-0.012 0.341 0.026 0.528 0.038 0.187 0.108 0.392 0.212 0.615 0.098 0.219 0.221 0.467 0.369 0.745v0c0.21 0.391 0.382 0.713 0.516 0.963 0.139 0.255 0.231 0.446 0.277 0.574v0c0.41 0.97 0.402 1.776-0.025 2.417v0c-0.228 0.343-0.51 0.59-0.845 0.741-0.337 0.141-0.696 0.211-1.076 0.21-0.386-0.005-0.775-0.073-1.167-0.204-0.394-0.14-0.76-0.322-1.098-0.546v0c-0.174-0.116-0.358-0.254-0.551-0.416-0.188-0.157-0.368-0.326-0.541-0.505-0.182-0.178-0.345-0.359-0.49-0.545-0.154-0.183-0.279-0.356-0.374-0.516v0z" fill="#2f2d2e" data-fill-palette-color="accent"></path><path d="M51.614 139.778l1.245 0.969-0.093 0.332-4.383-1.226 0.092-0.332 1.655-0.158 2.85-10.192-1.33-1.003 0.093-0.332 2.982 0.213 0.11 0.21-1.428 5.105c0.476-0.246 1-0.401 1.572-0.465 0.564-0.06 1.093-0.021 1.588 0.117v0c0.729 0.204 1.269 0.593 1.621 1.169 0.351 0.575 0.406 1.296 0.164 2.161v0l-1.379 4.93 1.323 0.991-0.093 0.332-4.383-1.226 0.093-0.331 1.567-0.183 1.239-4.432c0.217-0.774 0.23-1.35 0.04-1.726-0.188-0.382-0.617-0.667-1.287-0.854v0c-0.807-0.226-1.554-0.175-2.242 0.152v0z" fill="#2f2d2e" data-fill-palette-color="accent"></path><path d="M75.453 143.961v0c-0.527 0.016-1.03-0.076-1.509-0.278-0.486-0.201-0.918-0.489-1.295-0.862-0.376-0.367-0.682-0.831-0.915-1.391-0.234-0.567-0.361-1.182-0.382-1.844v0c-0.022-0.723 0.065-1.378 0.264-1.966 0.198-0.588 0.484-1.07 0.857-1.446 0.373-0.383 0.804-0.681 1.291-0.892 0.494-0.211 1.028-0.326 1.602-0.344v0c0.817-0.025 1.63 0.135 2.438 0.482v0l0.081 2.583-0.345 0.011-1.002-2.21c-0.333-0.071-0.666-0.101-0.996-0.091v0c-0.878 0.027-1.516 0.372-1.915 1.033-0.399 0.661-0.579 1.59-0.542 2.786v0c0.035 1.135 0.339 2.001 0.912 2.598 0.573 0.591 1.342 0.871 2.308 0.841v0c0.324-0.01 0.62-0.063 0.887-0.159 0.261-0.096 0.58-0.258 0.959-0.487v0l0.28 0.529c-0.488 0.407-0.962 0.689-1.424 0.846-0.455 0.156-0.973 0.243-1.554 0.261z" fill="#2f2d2e" data-fill-palette-color="accent"></path><path d="M92.983 131.371v0c0.601-0.206 1.176-0.289 1.726-0.249 0.558 0.044 1.067 0.195 1.526 0.452 0.46 0.257 0.865 0.618 1.218 1.083 0.359 0.463 0.646 1.011 0.863 1.643v0c0.215 0.626 0.326 1.231 0.333 1.815 0.007 0.583-0.091 1.121-0.294 1.611-0.212 0.487-0.522 0.915-0.931 1.284-0.407 0.375-0.914 0.667-1.522 0.875v0c-0.614 0.21-1.196 0.292-1.748 0.246-0.55-0.04-1.054-0.189-1.514-0.445-0.462-0.263-0.872-0.626-1.23-1.09-0.35-0.459-0.634-1.004-0.851-1.637v0c-0.217-0.633-0.326-1.242-0.326-1.827-0.007-0.583 0.092-1.117 0.297-1.602 0.212-0.487 0.521-0.918 0.928-1.294 0.409-0.369 0.918-0.657 1.525-0.865zM91.832 133.64v0c-0.181 0.805-0.091 1.735 0.271 2.79v0c0.18 0.524 0.395 0.986 0.646 1.386 0.251 0.4 0.53 0.722 0.836 0.967 0.306 0.245 0.636 0.407 0.991 0.485 0.347 0.074 0.709 0.046 1.086-0.083v0c0.377-0.129 0.683-0.331 0.918-0.604 0.233-0.28 0.398-0.611 0.495-0.994 0.097-0.383 0.126-0.811 0.085-1.283-0.04-0.472-0.15-0.97-0.33-1.494v0c-0.178-0.518-0.395-0.975-0.653-1.373-0.258-0.397-0.544-0.721-0.857-0.971-0.312-0.243-0.646-0.404-1.001-0.482-0.353-0.072-0.718-0.043-1.096 0.087v0c-0.748 0.256-1.211 0.78-1.391 1.569z" fill="#2f2d2e" data-fill-palette-color="accent"></path><path d="M117.164 126.222l1.487-0.587 0.189 0.251-1.939 2.261-0.247-0.042-0.482-0.64c-0.14 0.926-0.574 1.664-1.303 2.213v0c-0.367 0.277-0.786 0.461-1.258 0.554-0.471 0.093-0.953 0.088-1.445-0.015-0.487-0.107-0.984-0.329-1.492-0.666-0.498-0.335-0.953-0.776-1.363-1.32v0c-0.399-0.529-0.677-1.089-0.835-1.681-0.159-0.582-0.201-1.143-0.125-1.682 0.076-0.539 0.261-1.051 0.556-1.536 0.285-0.486 0.663-0.906 1.132-1.26v0c0.426-0.321 0.921-0.58 1.484-0.776v0l-1.823-2.42-1.605 0.447-0.207-0.275 1.979-2.24 0.234 0.04zM115.623 126.737v0l-3.502-4.647c-0.586 0.086-1.063 0.268-1.43 0.544v0c-0.631 0.476-0.943 1.146-0.934 2.011 0.014 0.861 0.332 1.704 0.955 2.53v0c0.651 0.864 1.343 1.434 2.075 1.711 0.734 0.267 1.404 0.173 2.009-0.283v0c0.556-0.419 0.832-1.041 0.827-1.866z" fill="#2f2d2e" data-fill-palette-color="accent"></path><path d="M129.011 107.628l0.057 0.339-3.146 4.418c0.51 0.355 1.006 0.596 1.488 0.723 0.478 0.133 0.908 0.153 1.29 0.06 0.387-0.089 0.732-0.242 1.035-0.458 0.312-0.217 0.59-0.497 0.833-0.837v0c0.337-0.473 0.538-1.093 0.603-1.861v0l0.557 0.074c0.067 0.628 0.023 1.174-0.132 1.635-0.159 0.468-0.411 0.944-0.755 1.428v0c-0.302 0.424-0.683 0.766-1.143 1.028-0.46 0.261-0.953 0.429-1.478 0.503-0.531 0.07-1.088 0.03-1.67-0.119-0.582-0.149-1.14-0.414-1.674-0.794v0c-0.506-0.361-0.919-0.754-1.238-1.18-0.328-0.425-0.556-0.844-0.684-1.259-0.122-0.411-0.18-0.825-0.173-1.243 0.017-0.42 0.087-0.809 0.211-1.169 0.129-0.356 0.305-0.691 0.528-1.004v0c0.274-0.385 0.601-0.692 0.98-0.921 0.378-0.228 0.798-0.369 1.259-0.422 0.465-0.059 0.976-0.002 1.533 0.171 0.563 0.177 1.136 0.473 1.719 0.888zM124.199 108.357v0c-0.372 0.523-0.464 1.088-0.275 1.696 0.199 0.606 0.629 1.203 1.289 1.789v0l2.323-3.261c-0.727-0.517-1.382-0.797-1.966-0.84-0.589-0.046-1.047 0.159-1.371 0.616z" fill="#2f2d2e" data-fill-palette-color="accent"></path><path d="M136.095 96.751l0.139-0.402 2.083-0.225c0.069-0.055 0.137-0.128 0.204-0.219 0.071-0.083 0.141-0.18 0.208-0.293 0.065-0.106 0.125-0.218 0.18-0.334 0.061-0.115 0.111-0.23 0.151-0.345v0c0.093-0.268 0.148-0.521 0.165-0.758 0.02-0.243 0.005-0.459-0.044-0.648-0.047-0.195-0.13-0.359-0.248-0.493-0.122-0.142-0.279-0.247-0.471-0.313v0c-0.243-0.084-0.514-0.063-0.815 0.062-0.294 0.127-0.611 0.34-0.949 0.638v0l-0.761 0.681c-0.263 0.245-0.526 0.469-0.789 0.671-0.256 0.205-0.518 0.372-0.785 0.501-0.271 0.121-0.547 0.197-0.829 0.229-0.282 0.031-0.574-0.005-0.874-0.109v0c-0.364-0.126-0.656-0.305-0.876-0.538-0.218-0.24-0.371-0.521-0.459-0.845-0.088-0.324-0.109-0.688-0.062-1.094 0.038-0.401 0.136-0.829 0.293-1.282v0c0.24-0.696 0.596-1.353 1.066-1.97v0l2.27 0.816-0.112 0.326-2.15 0.202c-0.094 0.189-0.173 0.355-0.236 0.497-0.068 0.134-0.118 0.249-0.152 0.345v0c-0.099 0.287-0.153 0.548-0.162 0.78 0 0.229 0.031 0.429 0.093 0.601 0.062 0.172 0.148 0.316 0.259 0.432 0.118 0.112 0.251 0.194 0.398 0.244v0c0.172 0.06 0.34 0.082 0.502 0.067 0.165-0.022 0.333-0.074 0.505-0.158 0.172-0.084 0.353-0.204 0.543-0.36 0.188-0.15 0.397-0.331 0.627-0.545v0c0.326-0.302 0.594-0.549 0.803-0.741 0.212-0.199 0.373-0.336 0.485-0.412v0c0.836-0.641 1.618-0.836 2.347-0.584v0c0.39 0.135 0.699 0.345 0.929 0.632 0.221 0.291 0.379 0.621 0.473 0.989 0.092 0.375 0.124 0.769 0.097 1.18-0.036 0.416-0.121 0.816-0.253 1.2v0c-0.068 0.198-0.156 0.411-0.264 0.638-0.105 0.221-0.223 0.438-0.353 0.65-0.126 0.221-0.261 0.425-0.404 0.612-0.139 0.195-0.274 0.359-0.406 0.492v0z" fill="#2f2d2e" data-fill-palette-color="accent"></path><path d="M0.135 72.243c0-2.607 2.113-4.72 4.72-4.72 2.607 0 4.72 2.113 4.72 4.72 0 2.607-2.113 4.72-4.72 4.72-2.607 0-4.72-2.113-4.72-4.72z" fill="#2f2d2e" data-fill-palette-color="accent"></path><path d="M134.388 72.243c0-2.607 2.113-4.72 4.72-4.72 2.607 0 4.72 2.113 4.72 4.72 0 2.607-2.113 4.72-4.72 4.72-2.607 0-4.72-2.113-4.72-4.72z" fill="#2f2d2e" data-fill-palette-color="accent"></path></g><g id="text-1"></g></svg></g></svg></g></svg></g><defs></defs></svg><rect width="395.52" height="98.92105106568563" fill="none" stroke="none" visibility="hidden"></rect></g></svg></g></svg>